<svg xmlns="http://www.w3.org/2000/svg" viewBox="0 0 1631 674" width="1631" height="674" role="img" aria-label="KUBUS Bouw &amp; Onderhoud logo">
  <title>KUBUS Bouw &amp; Onderhoud</title>
  <g fill-rule="evenodd" clip-rule="evenodd">
    <path fill="#DA1F1F" d="M 1578 506 L 1576 507 L 1576 512 L 1578 513 L 1586 513 L 1587 514 L 1587 546 L 1588 547 L 1593 547 L 1593 516 L 1595 513 L 1603 513 L 1605 512 L 1605 508 L 1601 506 Z M 1549 506 L 1548 507 L 1548 511 L 1547 512 L 1547 517 L 1548 518 L 1548 546 L 1549 547 L 1572 547 L 1573 545 L 1572 541 L 1555 541 L 1554 540 L 1554 530 L 1555 529 L 1563 529 L 1564 530 L 1566 529 L 1570 529 L 1570 524 L 1569 523 L 1555 523 L 1554 522 L 1554 514 L 1555 513 L 1571 513 L 1572 512 L 1572 507 L 1570 506 L 1567 506 L 1566 507 L 1563 507 L 1562 506 L 1561 507 L 1559 506 Z M 1509 506 L 1508 508 L 1508 545 L 1509 547 L 1514 547 L 1515 546 L 1515 531 L 1516 530 L 1523 530 L 1524 529 L 1526 530 L 1527 529 L 1530 529 L 1532 531 L 1532 546 L 1533 547 L 1537 547 L 1538 546 L 1538 519 L 1539 518 L 1539 509 L 1537 506 L 1533 506 L 1532 507 L 1532 522 L 1531 523 L 1516 523 L 1515 522 L 1515 507 L 1514 506 Z M 1456 507 L 1456 546 L 1457 547 L 1461 547 L 1462 546 L 1462 541 L 1463 540 L 1463 526 L 1465 525 L 1473 535 L 1479 545 L 1481 547 L 1485 547 L 1486 546 L 1486 507 L 1485 506 L 1481 506 L 1480 507 L 1480 515 L 1479 516 L 1479 526 L 1480 527 L 1480 529 L 1479 530 L 1476 528 L 1462 507 L 1460 506 Z M 1425 506 L 1424 507 L 1424 546 L 1425 547 L 1448 547 L 1449 546 L 1449 541 L 1446 541 L 1445 540 L 1431 540 L 1430 539 L 1430 531 L 1432 529 L 1445 530 L 1447 528 L 1446 523 L 1431 523 L 1430 522 L 1430 514 L 1432 512 L 1448 512 L 1448 507 L 1447 506 Z M 1414 506 L 1397 506 L 1396 507 L 1396 512 L 1398 513 L 1407 513 L 1408 514 L 1408 538 L 1405 541 L 1401 541 L 1397 537 L 1396 537 L 1393 541 L 1393 542 L 1397 546 L 1402 548 L 1410 546 L 1412 544 L 1415 537 L 1415 507 Z M 1383 506 L 1382 507 L 1382 546 L 1383 547 L 1387 547 L 1388 546 L 1388 529 L 1389 528 L 1389 526 L 1388 525 L 1388 516 L 1389 515 L 1389 511 L 1387 506 Z M 1326 506 L 1325 507 L 1325 511 L 1326 512 L 1326 514 L 1328 518 L 1328 521 L 1331 528 L 1331 532 L 1333 536 L 1335 546 L 1336 547 L 1342 547 L 1343 546 L 1345 536 L 1348 528 L 1348 525 L 1349 524 L 1349 522 L 1351 521 L 1353 525 L 1353 529 L 1355 532 L 1356 539 L 1359 547 L 1365 547 L 1369 537 L 1369 533 L 1373 522 L 1376 507 L 1371 507 L 1370 508 L 1370 510 L 1368 514 L 1368 517 L 1365 524 L 1365 527 L 1364 528 L 1364 530 L 1362 532 L 1360 531 L 1360 527 L 1357 521 L 1357 518 L 1356 517 L 1356 514 L 1355 513 L 1354 508 L 1353 507 L 1348 507 L 1346 511 L 1346 515 L 1343 522 L 1341 532 L 1339 533 L 1336 527 L 1336 524 L 1335 523 L 1335 520 L 1334 519 L 1332 509 L 1331 507 Z M 1297 506 L 1295 509 L 1296 510 L 1296 546 L 1297 547 L 1320 547 L 1321 546 L 1321 541 L 1319 540 L 1309 540 L 1308 541 L 1304 541 L 1302 539 L 1302 531 L 1304 529 L 1318 529 L 1318 524 L 1317 523 L 1303 523 L 1302 522 L 1302 515 L 1304 513 L 1319 513 L 1321 511 L 1321 508 L 1319 506 Z M 1259 507 L 1259 546 L 1260 547 L 1278 547 L 1279 546 L 1284 545 L 1288 541 L 1288 539 L 1289 538 L 1289 533 L 1288 532 L 1288 530 L 1284 526 L 1287 522 L 1287 519 L 1288 518 L 1287 512 L 1285 509 L 1277 506 L 1261 506 Z M 1265 531 L 1266 530 L 1278 529 L 1282 532 L 1282 538 L 1279 541 L 1267 541 L 1265 539 Z M 1265 514 L 1267 512 L 1277 513 L 1280 516 L 1280 520 L 1277 523 L 1267 523 L 1265 521 Z M 1235 506 L 1219 506 L 1218 507 L 1218 512 L 1220 513 L 1229 513 L 1230 514 L 1230 536 L 1229 538 L 1226 541 L 1224 541 L 1223 540 L 1221 540 L 1218 537 L 1215 541 L 1215 543 L 1218 546 L 1223 548 L 1227 548 L 1232 546 L 1236 541 L 1236 513 L 1237 512 L 1237 509 Z M 1205 506 L 1204 507 L 1204 547 L 1210 547 L 1210 513 L 1211 512 L 1211 509 L 1209 506 Z M 1147 506 L 1146 507 L 1146 509 L 1148 512 L 1149 519 L 1151 523 L 1151 526 L 1152 527 L 1152 530 L 1154 534 L 1154 538 L 1155 539 L 1155 542 L 1157 547 L 1163 547 L 1164 546 L 1167 538 L 1170 523 L 1171 522 L 1174 524 L 1176 534 L 1177 535 L 1180 546 L 1181 547 L 1186 547 L 1188 545 L 1189 537 L 1192 530 L 1192 527 L 1194 523 L 1194 520 L 1195 519 L 1195 516 L 1197 511 L 1197 507 L 1192 507 L 1191 508 L 1191 511 L 1188 517 L 1185 532 L 1183 533 L 1180 526 L 1179 519 L 1178 518 L 1177 512 L 1175 507 L 1173 506 L 1169 507 L 1167 511 L 1166 519 L 1164 523 L 1163 530 L 1160 532 L 1156 521 L 1156 517 L 1155 516 L 1154 509 L 1153 507 L 1151 506 Z M 1104 506 L 1102 507 L 1102 512 L 1104 513 L 1111 513 L 1113 515 L 1113 546 L 1114 547 L 1118 547 L 1119 546 L 1119 541 L 1120 540 L 1120 532 L 1119 531 L 1120 514 L 1121 513 L 1130 513 L 1131 508 L 1130 506 Z M 1075 506 L 1074 507 L 1074 517 L 1073 518 L 1073 543 L 1074 544 L 1074 546 L 1075 547 L 1098 547 L 1099 546 L 1099 542 L 1098 541 L 1082 541 L 1080 539 L 1080 532 L 1082 530 L 1095 530 L 1097 527 L 1096 523 L 1082 523 L 1080 521 L 1080 514 L 1082 512 L 1098 512 L 1098 507 L 1096 506 Z M 1059 506 L 1058 507 L 1058 546 L 1059 547 L 1064 547 L 1065 545 L 1065 539 L 1064 538 L 1064 532 L 1065 531 L 1065 526 L 1064 525 L 1064 507 L 1063 506 Z M 1020 506 L 1018 510 L 1019 547 L 1024 547 L 1025 546 L 1025 524 L 1026 523 L 1029 525 L 1031 529 L 1034 532 L 1040 543 L 1044 547 L 1048 547 L 1049 546 L 1049 507 L 1044 506 L 1042 509 L 1042 515 L 1043 516 L 1043 530 L 1041 531 L 1031 517 L 1026 508 L 1024 506 Z M 967 506 L 966 507 L 966 515 L 965 516 L 965 523 L 966 524 L 966 528 L 965 529 L 965 545 L 966 547 L 971 547 L 972 546 L 972 524 L 973 523 L 975 524 L 981 532 L 989 545 L 991 547 L 995 547 L 996 546 L 996 507 L 995 506 L 990 506 L 989 508 L 989 523 L 990 524 L 990 529 L 989 530 L 987 530 L 972 507 Z M 935 506 L 934 507 L 934 528 L 933 529 L 933 545 L 934 547 L 958 547 L 959 546 L 959 541 L 957 540 L 950 540 L 949 541 L 941 541 L 940 540 L 940 531 L 941 530 L 955 530 L 957 528 L 956 523 L 941 523 L 940 522 L 940 514 L 942 512 L 958 512 L 958 507 L 957 506 Z M 899 506 L 898 507 L 898 546 L 899 547 L 903 547 L 904 546 L 904 536 L 905 535 L 912 535 L 915 538 L 918 545 L 920 547 L 926 547 L 926 544 L 920 535 L 920 533 L 923 531 L 926 525 L 926 516 L 925 515 L 925 513 L 918 507 L 914 507 L 913 506 Z M 904 514 L 905 513 L 916 513 L 920 518 L 920 523 L 919 525 L 916 528 L 914 528 L 913 529 L 907 529 L 904 527 Z M 866 506 L 865 508 L 866 546 L 867 547 L 889 547 L 891 545 L 890 541 L 873 541 L 872 540 L 872 530 L 873 529 L 888 529 L 888 523 L 873 523 L 872 522 L 872 514 L 873 513 L 889 513 L 891 510 L 890 509 L 890 507 L 889 506 Z M 810 506 L 809 507 L 809 510 L 810 511 L 813 526 L 815 530 L 816 538 L 819 546 L 820 547 L 825 547 L 827 545 L 827 543 L 829 539 L 829 536 L 830 535 L 830 532 L 831 531 L 832 523 L 833 522 L 835 522 L 836 523 L 836 526 L 837 527 L 837 530 L 838 531 L 838 534 L 839 535 L 841 545 L 843 547 L 849 547 L 851 543 L 851 540 L 852 539 L 852 536 L 854 531 L 854 527 L 856 523 L 858 513 L 860 510 L 860 507 L 859 506 L 855 506 L 853 508 L 850 523 L 849 524 L 848 529 L 846 532 L 845 532 L 843 529 L 841 519 L 838 511 L 838 508 L 836 506 L 831 507 L 830 513 L 828 517 L 828 520 L 825 527 L 825 530 L 822 532 L 820 528 L 818 517 L 816 513 L 816 509 L 815 507 Z M 780 506 L 779 507 L 779 545 L 780 547 L 804 547 L 805 546 L 804 541 L 800 541 L 799 540 L 798 541 L 787 541 L 786 540 L 786 531 L 787 530 L 801 530 L 802 529 L 802 524 L 801 523 L 787 523 L 786 522 L 786 514 L 787 513 L 804 512 L 804 507 L 803 506 Z M 744 506 L 743 507 L 743 546 L 744 547 L 763 547 L 770 544 L 773 539 L 773 533 L 771 528 L 769 526 L 769 524 L 771 522 L 771 518 L 772 517 L 771 516 L 771 512 L 769 509 L 766 507 L 763 507 L 762 506 Z M 750 531 L 752 529 L 760 529 L 761 530 L 764 530 L 766 532 L 767 536 L 763 541 L 751 541 L 750 540 Z M 750 514 L 752 512 L 762 513 L 764 515 L 764 520 L 761 523 L 751 523 L 750 522 Z M 703 506 L 702 507 L 702 512 L 712 512 L 714 514 L 714 535 L 713 536 L 713 538 L 711 540 L 706 540 L 702 537 L 700 539 L 699 543 L 705 547 L 712 548 L 716 546 L 719 543 L 720 537 L 721 536 L 721 530 L 720 529 L 720 507 L 719 506 Z M 688 506 L 688 508 L 687 509 L 688 511 L 688 547 L 693 547 L 694 546 L 694 507 L 693 506 Z M 632 506 L 631 507 L 631 511 L 633 515 L 633 519 L 636 526 L 636 529 L 637 530 L 637 533 L 639 537 L 639 540 L 640 541 L 641 546 L 642 547 L 647 547 L 649 545 L 649 542 L 651 538 L 651 535 L 652 534 L 652 531 L 653 530 L 654 525 L 657 523 L 661 533 L 661 536 L 663 540 L 664 546 L 665 547 L 671 547 L 673 542 L 674 535 L 676 531 L 677 524 L 678 523 L 678 521 L 680 517 L 680 514 L 682 510 L 682 507 L 681 506 L 677 506 L 676 507 L 674 512 L 673 519 L 671 523 L 670 530 L 669 532 L 667 533 L 665 529 L 665 525 L 664 524 L 664 521 L 663 520 L 663 517 L 661 513 L 660 507 L 658 507 L 657 506 L 653 507 L 653 509 L 651 513 L 651 516 L 648 523 L 647 530 L 644 532 L 643 531 L 643 527 L 642 526 L 642 523 L 639 516 L 639 513 L 638 512 L 637 507 Z M 27 187 L 26 188 L 26 390 L 27 391 L 27 505 L 39 511 L 51 519 L 55 520 L 60 524 L 74 531 L 76 533 L 88 539 L 90 541 L 94 542 L 94 457 L 115 441 L 121 438 L 131 458 L 131 460 L 133 462 L 133 464 L 137 471 L 137 473 L 139 475 L 140 479 L 142 481 L 142 483 L 149 496 L 149 498 L 151 500 L 151 502 L 160 519 L 160 521 L 173 546 L 173 548 L 181 563 L 181 565 L 196 594 L 196 596 L 198 598 L 199 602 L 206 605 L 213 610 L 227 617 L 242 627 L 260 636 L 275 646 L 281 649 L 283 649 L 279 641 L 279 639 L 271 624 L 271 622 L 268 617 L 268 615 L 264 607 L 262 605 L 261 601 L 254 588 L 254 586 L 250 579 L 250 577 L 235 548 L 235 546 L 226 528 L 226 526 L 224 524 L 220 516 L 220 514 L 217 510 L 217 508 L 204 482 L 204 480 L 191 455 L 191 453 L 169 408 L 169 405 L 172 402 L 182 396 L 185 393 L 195 387 L 198 384 L 215 373 L 225 365 L 264 339 L 267 336 L 275 331 L 277 328 L 262 318 L 251 313 L 249 311 L 247 311 L 245 309 L 235 304 L 233 302 L 231 302 L 229 300 L 214 292 L 212 290 L 206 287 L 204 287 L 192 295 L 189 298 L 185 300 L 172 311 L 158 320 L 147 329 L 133 338 L 129 342 L 114 352 L 103 361 L 97 365 L 95 365 L 94 364 L 94 224 L 90 221 L 77 215 L 75 213 L 63 207 L 61 205 L 51 200 L 49 198 Z M 1246 176 L 1246 218 L 1247 219 L 1247 222 L 1246 223 L 1247 225 L 1246 280 L 1247 281 L 1247 294 L 1248 295 L 1248 300 L 1249 301 L 1250 310 L 1251 311 L 1253 319 L 1255 322 L 1256 326 L 1259 329 L 1262 335 L 1269 342 L 1269 343 L 1284 354 L 1294 359 L 1296 359 L 1300 361 L 1303 361 L 1304 362 L 1307 362 L 1308 363 L 1311 363 L 1312 364 L 1316 364 L 1317 365 L 1349 365 L 1350 364 L 1360 363 L 1361 362 L 1368 361 L 1374 358 L 1376 358 L 1384 354 L 1394 347 L 1400 341 L 1408 330 L 1412 322 L 1412 320 L 1415 315 L 1415 312 L 1416 311 L 1416 308 L 1418 303 L 1418 294 L 1419 293 L 1419 175 L 1417 174 L 1415 174 L 1414 175 L 1412 175 L 1411 174 L 1410 175 L 1408 175 L 1407 174 L 1406 175 L 1402 175 L 1401 174 L 1400 175 L 1398 175 L 1397 174 L 1395 175 L 1376 174 L 1374 175 L 1374 289 L 1373 290 L 1373 295 L 1372 296 L 1371 303 L 1367 311 L 1361 318 L 1351 324 L 1349 324 L 1345 326 L 1340 326 L 1339 327 L 1329 327 L 1328 326 L 1323 326 L 1322 325 L 1316 324 L 1310 321 L 1300 312 L 1295 303 L 1294 295 L 1293 294 L 1293 290 L 1292 289 L 1292 175 L 1290 174 L 1274 174 L 1273 175 L 1271 174 L 1249 174 Z M 1043 174 L 1042 175 L 1042 361 L 1043 362 L 1164 362 L 1165 361 L 1171 361 L 1176 359 L 1180 359 L 1181 358 L 1189 356 L 1197 352 L 1204 347 L 1211 339 L 1217 327 L 1218 317 L 1219 316 L 1219 305 L 1218 304 L 1217 294 L 1211 282 L 1200 270 L 1194 267 L 1191 264 L 1191 263 L 1199 256 L 1204 249 L 1208 241 L 1208 238 L 1210 233 L 1210 216 L 1209 215 L 1209 211 L 1208 210 L 1208 207 L 1201 195 L 1194 188 L 1182 181 L 1180 181 L 1174 178 L 1171 178 L 1166 176 L 1161 176 L 1160 175 L 1152 175 L 1151 174 L 1149 175 L 1143 175 L 1142 174 Z M 1087 284 L 1088 283 L 1152 283 L 1153 284 L 1157 284 L 1167 290 L 1170 294 L 1173 301 L 1173 310 L 1170 317 L 1164 323 L 1153 327 L 1088 327 L 1087 326 Z M 1087 210 L 1088 209 L 1147 209 L 1148 210 L 1151 210 L 1157 213 L 1162 218 L 1165 225 L 1165 234 L 1163 239 L 1157 245 L 1153 247 L 1151 247 L 1148 249 L 1088 249 L 1087 248 Z M 831 175 L 831 295 L 832 296 L 832 300 L 833 301 L 833 305 L 834 306 L 834 310 L 835 311 L 836 316 L 845 334 L 855 345 L 869 355 L 887 362 L 895 363 L 896 364 L 900 364 L 901 365 L 922 366 L 923 365 L 934 365 L 935 364 L 940 364 L 945 362 L 950 362 L 968 354 L 975 349 L 987 337 L 992 330 L 999 313 L 999 309 L 1000 308 L 1001 300 L 1002 299 L 1002 289 L 1003 288 L 1003 175 L 1001 174 L 960 174 L 958 175 L 958 286 L 957 287 L 957 294 L 956 295 L 956 298 L 955 299 L 954 304 L 949 314 L 943 320 L 940 321 L 938 323 L 936 323 L 929 326 L 907 326 L 906 325 L 903 325 L 902 324 L 897 323 L 895 321 L 892 320 L 882 310 L 881 306 L 879 303 L 878 297 L 877 296 L 877 292 L 876 291 L 876 175 L 874 175 L 873 174 L 833 174 Z M 633 174 L 632 175 L 632 362 L 677 362 L 678 361 L 678 315 L 703 289 L 707 292 L 716 305 L 729 320 L 738 333 L 744 339 L 744 340 L 753 350 L 762 362 L 815 362 L 815 360 L 809 351 L 804 346 L 801 341 L 782 318 L 776 309 L 764 295 L 759 287 L 749 276 L 746 271 L 735 258 L 736 254 L 738 253 L 739 251 L 742 249 L 742 248 L 744 247 L 746 244 L 761 229 L 761 228 L 771 218 L 771 217 L 804 183 L 810 175 L 804 175 L 803 174 L 793 174 L 792 175 L 790 174 L 760 174 L 758 175 L 718 216 L 718 217 L 695 241 L 695 242 L 693 243 L 692 245 L 690 246 L 689 248 L 687 249 L 680 257 L 679 257 L 678 256 L 678 234 L 677 233 L 678 231 L 678 228 L 677 227 L 678 225 L 678 208 L 677 207 L 677 180 L 678 179 L 678 176 L 676 174 Z M 1550 172 L 1523 171 L 1522 172 L 1507 173 L 1506 174 L 1497 175 L 1496 176 L 1485 179 L 1474 185 L 1464 193 L 1456 204 L 1452 212 L 1452 215 L 1450 220 L 1449 234 L 1450 235 L 1451 244 L 1456 255 L 1466 267 L 1475 272 L 1477 274 L 1479 274 L 1484 277 L 1487 277 L 1488 278 L 1490 278 L 1497 281 L 1500 281 L 1504 283 L 1512 284 L 1516 286 L 1536 290 L 1552 296 L 1555 298 L 1560 304 L 1560 306 L 1561 307 L 1561 312 L 1559 317 L 1556 321 L 1546 327 L 1542 327 L 1541 328 L 1537 328 L 1536 329 L 1514 329 L 1513 328 L 1508 328 L 1507 327 L 1503 327 L 1495 324 L 1492 324 L 1487 321 L 1485 321 L 1480 318 L 1478 318 L 1468 313 L 1464 310 L 1461 310 L 1446 342 L 1448 345 L 1451 346 L 1453 348 L 1470 356 L 1472 356 L 1479 359 L 1482 359 L 1486 361 L 1494 362 L 1495 363 L 1499 363 L 1500 364 L 1505 364 L 1506 365 L 1523 365 L 1524 366 L 1529 366 L 1530 365 L 1543 365 L 1544 364 L 1550 364 L 1555 362 L 1563 361 L 1564 360 L 1569 359 L 1574 356 L 1576 356 L 1578 354 L 1587 349 L 1599 336 L 1605 322 L 1605 317 L 1606 316 L 1606 299 L 1605 298 L 1604 290 L 1598 279 L 1588 269 L 1582 265 L 1569 259 L 1567 259 L 1560 256 L 1553 255 L 1549 253 L 1540 252 L 1539 251 L 1536 251 L 1531 249 L 1526 249 L 1522 247 L 1519 247 L 1518 246 L 1515 246 L 1512 244 L 1510 244 L 1502 240 L 1497 235 L 1495 230 L 1496 221 L 1502 214 L 1510 210 L 1516 209 L 1517 208 L 1522 208 L 1523 207 L 1540 207 L 1541 208 L 1546 208 L 1547 209 L 1554 210 L 1555 211 L 1561 212 L 1567 215 L 1572 216 L 1580 220 L 1582 222 L 1584 222 L 1585 221 L 1586 217 L 1589 212 L 1589 210 L 1592 205 L 1592 203 L 1595 198 L 1595 196 L 1598 191 L 1598 188 L 1593 185 L 1591 185 L 1584 181 L 1579 180 L 1576 178 L 1574 178 L 1570 176 L 1567 176 L 1566 175 L 1563 175 L 1562 174 L 1557 174 L 1556 173 L 1551 173 Z M 291 26 L 292 27 L 292 313 L 291 314 L 292 315 L 294 315 L 296 313 L 305 309 L 307 307 L 317 302 L 319 300 L 326 297 L 328 295 L 341 289 L 343 287 L 355 281 L 365 274 L 372 271 L 379 266 L 388 262 L 390 260 L 394 259 L 403 253 L 410 250 L 427 239 L 434 236 L 441 231 L 450 227 L 457 222 L 466 218 L 473 213 L 487 206 L 496 200 L 503 197 L 505 195 L 510 193 L 517 188 L 519 188 L 521 186 L 538 177 L 540 175 L 547 172 L 549 170 L 548 168 L 541 165 L 539 163 L 525 156 L 516 150 L 509 147 L 500 141 L 491 137 L 484 132 L 475 128 L 466 122 L 441 109 L 439 107 L 425 100 L 416 94 L 407 90 L 405 88 L 393 82 L 384 76 L 375 72 L 366 66 L 359 63 L 357 61 L 350 58 L 348 56 L 341 53 L 339 51 L 332 48 L 330 46 L 323 43 L 321 41 L 307 34 L 305 32 L 296 28 L 294 26 Z"/>
    <path fill="#050505" d="M 1486 419 L 1486 457 L 1489 465 L 1495 471 L 1500 473 L 1514 473 L 1515 472 L 1517 472 L 1522 468 L 1524 469 L 1524 472 L 1525 473 L 1535 473 L 1535 419 L 1524 419 L 1524 453 L 1522 457 L 1517 462 L 1512 463 L 1511 464 L 1504 463 L 1499 459 L 1497 454 L 1497 419 Z M 1433 421 L 1424 429 L 1420 437 L 1420 440 L 1419 441 L 1419 451 L 1420 452 L 1420 455 L 1422 458 L 1422 460 L 1430 469 L 1439 473 L 1454 473 L 1463 469 L 1470 461 L 1473 454 L 1473 449 L 1474 448 L 1473 438 L 1469 429 L 1463 423 L 1454 419 L 1439 419 L 1438 420 Z M 1443 428 L 1450 428 L 1455 430 L 1460 435 L 1462 439 L 1462 443 L 1463 444 L 1463 448 L 1462 449 L 1462 453 L 1456 461 L 1450 464 L 1443 464 L 1437 461 L 1433 457 L 1430 450 L 1430 442 L 1431 441 L 1431 438 L 1438 430 Z M 1268 420 L 1261 424 L 1258 427 L 1254 434 L 1253 440 L 1252 441 L 1252 451 L 1253 452 L 1254 458 L 1257 463 L 1263 469 L 1269 472 L 1272 472 L 1273 473 L 1288 473 L 1289 472 L 1291 472 L 1300 466 L 1300 464 L 1295 458 L 1292 461 L 1285 464 L 1276 464 L 1271 462 L 1265 456 L 1263 452 L 1263 450 L 1264 449 L 1304 449 L 1304 442 L 1303 441 L 1302 434 L 1299 428 L 1295 424 L 1288 420 L 1286 420 L 1285 419 L 1271 419 L 1270 420 Z M 1263 439 L 1264 438 L 1264 436 L 1268 431 L 1273 428 L 1280 427 L 1281 428 L 1286 429 L 1292 435 L 1294 439 L 1294 441 L 1293 442 L 1264 442 L 1263 441 Z M 1124 419 L 1124 473 L 1135 473 L 1135 440 L 1137 435 L 1142 430 L 1147 429 L 1148 428 L 1156 429 L 1162 436 L 1162 472 L 1163 473 L 1173 473 L 1174 472 L 1174 441 L 1173 440 L 1173 433 L 1169 425 L 1166 422 L 1159 419 L 1146 419 L 1139 422 L 1137 424 L 1135 423 L 1135 419 Z M 826 419 L 827 420 L 833 440 L 835 443 L 835 446 L 838 452 L 839 458 L 841 461 L 841 464 L 842 465 L 843 470 L 845 473 L 856 473 L 863 450 L 865 447 L 865 444 L 867 441 L 867 439 L 869 437 L 871 438 L 871 440 L 872 441 L 876 455 L 878 458 L 879 464 L 881 467 L 882 472 L 883 473 L 893 473 L 894 472 L 894 470 L 896 467 L 897 461 L 899 458 L 900 452 L 902 449 L 902 447 L 903 446 L 903 444 L 904 443 L 904 441 L 912 419 L 902 419 L 902 421 L 900 424 L 900 427 L 898 430 L 898 432 L 897 433 L 897 435 L 889 457 L 888 457 L 885 453 L 885 451 L 880 438 L 880 435 L 878 432 L 878 429 L 875 423 L 875 420 L 874 419 L 865 419 L 864 420 L 860 434 L 858 437 L 858 439 L 851 458 L 850 458 L 848 455 L 837 420 L 836 419 Z M 768 419 L 767 420 L 768 421 L 767 450 L 768 451 L 768 458 L 771 465 L 776 470 L 782 473 L 795 473 L 802 470 L 804 468 L 806 469 L 806 472 L 807 473 L 817 473 L 817 419 L 806 419 L 806 451 L 805 452 L 804 457 L 800 461 L 793 464 L 790 464 L 785 462 L 779 455 L 779 420 L 778 419 Z M 715 421 L 705 430 L 702 437 L 702 441 L 701 442 L 701 450 L 702 451 L 702 455 L 704 460 L 712 469 L 721 473 L 736 473 L 743 470 L 750 464 L 753 459 L 753 457 L 755 453 L 755 439 L 752 431 L 746 424 L 739 420 L 736 420 L 735 419 L 721 419 L 720 420 Z M 725 428 L 732 428 L 733 429 L 735 429 L 741 434 L 744 440 L 744 452 L 740 459 L 738 461 L 732 464 L 725 464 L 720 462 L 715 457 L 712 450 L 712 442 L 713 441 L 714 436 L 720 430 Z M 1345 418 L 1343 419 L 1338 419 L 1332 422 L 1330 424 L 1328 423 L 1328 419 L 1317 419 L 1317 473 L 1328 473 L 1328 441 L 1330 436 L 1336 430 L 1338 430 L 1339 429 L 1346 429 L 1346 419 Z M 633 403 L 633 420 L 632 421 L 632 439 L 633 440 L 633 473 L 671 473 L 672 472 L 680 471 L 686 468 L 689 465 L 692 459 L 692 448 L 691 447 L 691 445 L 689 442 L 682 436 L 682 435 L 687 430 L 689 425 L 689 417 L 688 416 L 688 413 L 686 410 L 681 406 L 673 403 Z M 644 442 L 645 441 L 670 441 L 671 442 L 674 442 L 680 447 L 680 449 L 681 450 L 681 455 L 678 460 L 672 463 L 645 463 L 644 462 Z M 644 413 L 645 412 L 668 412 L 669 413 L 672 413 L 677 418 L 677 420 L 678 421 L 677 426 L 674 430 L 670 432 L 645 432 L 644 431 Z M 1064 403 L 1054 408 L 1044 419 L 1040 429 L 1040 436 L 1039 437 L 1039 439 L 1040 440 L 1040 447 L 1047 461 L 1056 469 L 1062 472 L 1072 473 L 1073 474 L 1085 473 L 1091 470 L 1093 470 L 1099 466 L 1106 458 L 1111 446 L 1111 430 L 1110 429 L 1110 426 L 1105 416 L 1094 406 L 1083 402 L 1068 402 L 1067 403 Z M 1070 412 L 1080 412 L 1081 413 L 1084 413 L 1091 417 L 1098 426 L 1099 432 L 1100 433 L 1100 442 L 1099 443 L 1099 447 L 1097 451 L 1090 459 L 1082 463 L 1077 463 L 1076 464 L 1074 464 L 1073 463 L 1069 463 L 1062 460 L 1055 453 L 1051 444 L 1051 432 L 1054 424 L 1060 417 Z M 960 404 L 956 407 L 953 412 L 953 415 L 952 416 L 953 424 L 959 434 L 950 440 L 947 443 L 944 449 L 944 459 L 947 465 L 954 471 L 959 473 L 964 473 L 965 474 L 971 474 L 972 473 L 981 472 L 987 469 L 990 466 L 992 466 L 999 473 L 1000 473 L 1006 466 L 997 457 L 1000 451 L 1003 440 L 1000 440 L 999 439 L 994 438 L 993 439 L 993 442 L 992 443 L 991 448 L 990 449 L 988 449 L 976 436 L 976 435 L 980 432 L 988 423 L 988 421 L 989 420 L 989 413 L 986 407 L 982 404 L 977 402 L 965 402 Z M 955 450 L 961 443 L 964 441 L 967 441 L 969 444 L 970 444 L 972 447 L 984 458 L 984 459 L 982 461 L 976 464 L 971 464 L 970 465 L 962 464 L 956 459 L 955 457 Z M 967 410 L 975 410 L 979 414 L 979 420 L 978 422 L 971 428 L 968 428 L 964 424 L 962 420 L 962 415 Z M 1601 398 L 1591 398 L 1591 423 L 1590 424 L 1581 419 L 1566 419 L 1558 423 L 1552 429 L 1548 438 L 1548 445 L 1547 446 L 1548 447 L 1548 454 L 1552 463 L 1559 470 L 1566 473 L 1575 474 L 1576 473 L 1581 473 L 1582 472 L 1584 472 L 1590 468 L 1591 469 L 1591 473 L 1601 473 Z M 1571 428 L 1579 428 L 1580 429 L 1582 429 L 1589 436 L 1590 441 L 1591 442 L 1591 450 L 1590 451 L 1589 456 L 1583 462 L 1579 464 L 1572 464 L 1567 462 L 1561 456 L 1559 451 L 1559 441 L 1561 436 L 1565 431 Z M 1357 398 L 1357 473 L 1368 473 L 1368 439 L 1370 435 L 1376 429 L 1379 429 L 1380 428 L 1386 428 L 1387 429 L 1389 429 L 1394 434 L 1394 436 L 1395 437 L 1395 472 L 1396 473 L 1406 473 L 1406 471 L 1407 470 L 1406 469 L 1406 460 L 1407 459 L 1407 443 L 1406 442 L 1406 434 L 1403 427 L 1401 424 L 1397 421 L 1392 419 L 1379 419 L 1378 420 L 1373 421 L 1369 424 L 1368 423 L 1368 398 Z M 1239 398 L 1229 398 L 1229 423 L 1228 424 L 1219 419 L 1214 419 L 1213 418 L 1211 418 L 1210 419 L 1204 419 L 1199 421 L 1190 429 L 1186 438 L 1186 454 L 1190 463 L 1197 470 L 1204 473 L 1213 474 L 1214 473 L 1221 472 L 1225 469 L 1228 468 L 1229 469 L 1229 473 L 1239 473 Z M 1209 428 L 1217 428 L 1221 430 L 1226 435 L 1228 439 L 1228 453 L 1226 457 L 1221 462 L 1217 464 L 1210 464 L 1205 462 L 1199 456 L 1197 451 L 1197 441 L 1200 434 L 1203 431 Z M 529 233 L 523 230 L 516 229 L 515 228 L 501 228 L 500 229 L 494 229 L 493 230 L 486 231 L 480 234 L 470 237 L 443 251 L 441 253 L 434 256 L 432 258 L 411 269 L 404 274 L 390 281 L 388 283 L 383 285 L 381 287 L 376 289 L 374 291 L 369 293 L 367 295 L 362 297 L 360 299 L 355 301 L 353 303 L 348 305 L 346 307 L 334 313 L 327 318 L 320 321 L 318 323 L 303 331 L 303 648 L 320 639 L 327 634 L 334 631 L 336 629 L 341 627 L 343 625 L 350 622 L 352 620 L 357 618 L 364 613 L 378 606 L 380 604 L 385 602 L 394 596 L 401 593 L 410 587 L 417 584 L 419 582 L 424 580 L 431 575 L 440 571 L 442 569 L 459 560 L 464 556 L 467 555 L 482 545 L 498 532 L 499 532 L 504 527 L 505 527 L 521 511 L 521 510 L 530 500 L 540 485 L 548 469 L 548 467 L 552 459 L 552 456 L 555 448 L 555 444 L 556 443 L 556 439 L 557 438 L 557 432 L 558 431 L 558 407 L 557 406 L 557 401 L 555 397 L 554 391 L 547 379 L 538 371 L 529 367 L 525 367 L 524 366 L 515 366 L 514 365 L 524 350 L 527 347 L 537 328 L 537 326 L 539 323 L 539 321 L 542 314 L 542 311 L 543 310 L 543 307 L 545 302 L 545 298 L 546 297 L 546 290 L 547 289 L 547 271 L 546 270 L 545 258 L 540 245 L 535 238 Z M 484 427 L 487 430 L 491 439 L 491 456 L 490 457 L 490 461 L 489 462 L 488 467 L 483 477 L 478 484 L 467 495 L 451 506 L 446 508 L 439 513 L 425 520 L 423 522 L 418 524 L 416 526 L 411 528 L 409 530 L 404 532 L 402 534 L 397 536 L 388 542 L 381 545 L 372 551 L 370 551 L 369 550 L 369 480 L 377 474 L 398 463 L 400 461 L 405 459 L 414 453 L 421 450 L 423 448 L 433 443 L 435 441 L 442 438 L 444 436 L 460 428 L 462 428 L 465 426 L 469 426 L 470 425 L 480 425 Z M 475 306 L 478 310 L 481 318 L 481 331 L 480 332 L 478 342 L 473 352 L 467 360 L 457 370 L 446 378 L 429 387 L 427 389 L 417 394 L 415 396 L 408 399 L 406 401 L 389 410 L 387 412 L 382 414 L 380 416 L 375 418 L 373 420 L 371 420 L 370 419 L 370 353 L 377 348 L 382 346 L 384 344 L 389 342 L 391 340 L 396 338 L 398 336 L 403 334 L 405 332 L 424 322 L 431 317 L 454 305 L 462 304 L 463 303 L 468 303 Z M 291 26 L 287 29 L 282 31 L 280 33 L 259 44 L 257 46 L 250 49 L 243 54 L 234 58 L 232 60 L 222 65 L 220 67 L 213 70 L 211 72 L 197 79 L 195 81 L 190 83 L 181 89 L 174 92 L 172 94 L 158 101 L 156 103 L 151 105 L 142 111 L 135 114 L 133 116 L 128 118 L 126 120 L 121 122 L 119 124 L 114 126 L 105 132 L 98 135 L 96 137 L 91 139 L 82 145 L 59 157 L 57 159 L 38 169 L 37 171 L 47 176 L 49 178 L 56 181 L 58 183 L 68 188 L 70 190 L 79 194 L 88 200 L 111 212 L 118 217 L 127 221 L 129 223 L 134 225 L 141 230 L 150 234 L 157 239 L 166 243 L 168 245 L 173 247 L 182 253 L 189 256 L 191 258 L 205 265 L 207 267 L 217 272 L 219 274 L 226 277 L 235 283 L 244 287 L 251 292 L 260 296 L 267 301 L 272 303 L 274 305 L 281 308 L 283 310 L 291 314 Z"/>
  </g>
</svg>